<svg xmlns="http://www.w3.org/2000/svg" xmlns:xlink="http://www.w3.org/1999/xlink" version="1.1" width="1000" height="1000" viewBox="0 0 1000 1000" xml:space="preserve">
<desc>Created with Fabric.js 3.5.0</desc>
<defs>
</defs>
<rect x="0" y="0" width="100%" height="100%" fill="rgba(0,0,0,0)"/>
<g style="filter: drop-shadow(0px 0px 10px red);" transform="matrix(0.717 0 0 0.717 500.0144 500.0147)" id="288232">
<g style="" vector-effect="non-scaling-stroke">
		<g transform="matrix(0.1 0 0 -0.1 0.2416 -297.2112)" id="svg_2">
<path style="filter: drop-shadow(0px 0px 10px red); stroke: none; stroke-width: 1; stroke-dasharray: none; stroke-linecap: butt; stroke-dashoffset: 0; stroke-linejoin: miter; stroke-miterlimit: 4; is-custom-font: none; font-file-url: none; fill: rgb(0,0,0); fill-rule: nonzero; opacity: 1;" transform=" translate(-6287.416, 3427.8882)" d="m 6547 -11 c -239 -23 -521 -105 -752 -219 c -249 -122 -442 -264 -639 -471 l -116 -122 l -132 66 c -304 150 -581 221 -913 234 c -875 34 -1697 -461 -2080 -1252 c -72 -148 -132 -315 -165 -457 l -22 -98 l -42 -11 c -329 -85 -635 -241 -880 -448 c -98 -82 -246 -232 -317 -321 c -202 -251 -364 -589 -433 -903 c -44 -198 -50 -263 -50 -492 c 0 -238 16 -365 69 -569 c 111 -427 373 -841 715 -1129 c 614 -517 1443 -666 2200 -395 c 124 44 332 148 445 222 l 98 64 l 66 -18 c 225 -62 503 -89 733 -71 c 138 11 336 44 428 71 c 30 9 39 7 60 -10 c 301 -240 592 -385 935 -465 c 178 -41 268 -50 510 -50 c 259 1 382 17 595 79 c 278 80 496 190 734 368 l 119 90 l 46 -26 c 108 -62 283 -146 371 -179 c 544 -203 1127 -190 1661 39 c 71 31 137 53 145 50 c 39 -15 273 -36 402 -36 c 601 0 1146 225 1572 650 c 608 605 814 1479 539 2293 c -285 848 -1052 1441 -1953 1509 l -151 11 l -130 127 c -263 257 -530 420 -864 530 c -157 52 -357 94 -502 106 l -85 6 l -34 67 c -52 101 -183 291 -267 387 c -217 248 -424 409 -707 550 c -373 185 -794 263 -1209 223 z" stroke-linecap="round"/>
</g>
		<g transform="matrix(0.1 0 0 -0.1 -22.0139 368.0938)" id="svg_3">
<path style="stroke: none; stroke-width: 1; stroke-dasharray: none; stroke-linecap: butt; stroke-dashoffset: 0; stroke-linejoin: miter; stroke-miterlimit: 4; is-custom-font: none; font-file-url: none; fill: rgb(141,0,0); fill-rule: nonzero; opacity: 1;" transform=" translate(-6064.8607, 10080.9378)" d="m 5219 -7374 c -15 -9 -30 -23 -34 -33 c -3 -10 -118 -441 -255 -958 c -137 -517 -303 -1146 -369 -1397 c -81 -305 -119 -466 -115 -483 c 8 -33 49 -65 83 -65 c 14 0 214 45 444 101 c 230 56 420 99 423 97 c 2 -3 -310 -578 -693 -1279 c -482 -881 -698 -1285 -701 -1311 c -3 -31 1 -43 26 -68 c 32 -32 63 -37 99 -17 c 12 7 915 855 2007 1885 c 1323 1248 1988 1882 1992 1899 c 9 35 -6 72 -38 96 c -28 21 -29 21 -190 4 c -90 -9 -401 -42 -692 -72 c -291 -31 -530 -54 -531 -53 c -1 2 180 341 402 753 c 246 455 407 765 410 787 c 5 32 1 41 -25 68 c -30 30 -31 30 -144 30 c -62 0 -363 4 -668 10 c -1284 21 -1403 22 -1431 6 z" stroke-linecap="round"/>
</g>
</g>
</g>
</svg>